<mxfile host="Electron" agent="Mozilla/5.0 (Windows NT 10.0; Win64; x64) AppleWebKit/537.36 (KHTML, like Gecko) draw.io/28.0.6 Chrome/138.0.7204.100 Electron/37.2.3 Safari/537.36" version="28.0.6">
  <diagram name="PÃ¡gina-1" id="aE5L2_SRvgVATQ2nO0Fx">
    <mxGraphModel dx="1371" dy="701" grid="1" gridSize="10" guides="1" tooltips="1" connect="1" arrows="1" fold="1" page="1" pageScale="1" pageWidth="1654" pageHeight="1169" math="0" shadow="0">
      <root>
        <mxCell id="0" />
        <mxCell id="1" parent="0" />
        <mxCell id="wKW3DbMZ_7wd4FMtNkPD-1" value="User, App /&amp;nbsp;&lt;div&gt;system, device&lt;/div&gt;" style="rounded=0;whiteSpace=wrap;html=1;sketch=1;hachureGap=4;jiggle=2;curveFitting=1;fontFamily=Architects Daughter;fontSource=https%3A%2F%2Ffonts.googleapis.com%2Fcss%3Ffamily%3DArchitects%2BDaughter;fillColor=#ffe6cc;strokeColor=#d79b00;fontSize=19;" vertex="1" parent="1">
          <mxGeometry x="150" y="120" width="140" height="50" as="geometry" />
        </mxCell>
        <mxCell id="wKW3DbMZ_7wd4FMtNkPD-2" value="&lt;div&gt;&lt;font style=&quot;font-size: 12px;&quot;&gt;KDC(AS/TGS)&amp;nbsp;&lt;/font&gt;&lt;span style=&quot;font-size: 12px; background-color: transparent; color: light-dark(rgb(0, 0, 0), rgb(255, 255, 255));&quot;&gt;And&lt;/span&gt;&lt;/div&gt;&lt;font style=&quot;font-size: 12px;&quot;&gt;kerby-instruments&lt;/font&gt;" style="rounded=0;whiteSpace=wrap;html=1;sketch=1;hachureGap=4;jiggle=2;curveFitting=1;fontFamily=Architects Daughter;fontSource=https%3A%2F%2Ffonts.googleapis.com%2Fcss%3Ffamily%3DArchitects%2BDaughter;fillColor=#dae8fc;strokeColor=#6c8ebf;fontSize=19;fontStyle=1" vertex="1" parent="1">
          <mxGeometry x="400" y="110" width="120" height="60" as="geometry" />
        </mxCell>
        <mxCell id="wKW3DbMZ_7wd4FMtNkPD-3" value="web-api_1" style="rounded=0;whiteSpace=wrap;html=1;sketch=1;hachureGap=4;jiggle=2;curveFitting=1;fontFamily=Architects Daughter;fontSource=https%3A%2F%2Ffonts.googleapis.com%2Fcss%3Ffamily%3DArchitects%2BDaughter;fillColor=#f8cecc;strokeColor=#b85450;fontSize=19;" vertex="1" parent="1">
          <mxGeometry x="700" y="110" width="120" height="60" as="geometry" />
        </mxCell>
        <mxCell id="wKW3DbMZ_7wd4FMtNkPD-4" value="web-api_2" style="rounded=0;whiteSpace=wrap;html=1;sketch=1;hachureGap=4;jiggle=2;curveFitting=1;fontFamily=Architects Daughter;fontSource=https%3A%2F%2Ffonts.googleapis.com%2Fcss%3Ffamily%3DArchitects%2BDaughter;fillColor=#f8cecc;strokeColor=#b85450;fontSize=19;" vertex="1" parent="1">
          <mxGeometry x="960" y="110" width="120" height="60" as="geometry" />
        </mxCell>
        <mxCell id="wKW3DbMZ_7wd4FMtNkPD-5" value="" style="endArrow=none;dashed=1;html=1;dashPattern=1 3;strokeWidth=2;rounded=0;sketch=1;hachureGap=4;jiggle=2;curveFitting=1;fontFamily=Architects Daughter;fontSource=https%3A%2F%2Ffonts.googleapis.com%2Fcss%3Ffamily%3DArchitects%2BDaughter;entryX=0.5;entryY=1;entryDx=0;entryDy=0;fontColor=#7EA6E0;strokeColor=#7EA6E0;" edge="1" parent="1" target="wKW3DbMZ_7wd4FMtNkPD-1">
          <mxGeometry width="50" height="50" relative="1" as="geometry">
            <mxPoint x="220" y="710" as="sourcePoint" />
            <mxPoint x="610" y="410" as="targetPoint" />
          </mxGeometry>
        </mxCell>
        <mxCell id="wKW3DbMZ_7wd4FMtNkPD-6" value="" style="endArrow=none;dashed=1;html=1;dashPattern=1 3;strokeWidth=2;rounded=0;sketch=1;hachureGap=4;jiggle=2;curveFitting=1;fontFamily=Architects Daughter;fontSource=https%3A%2F%2Ffonts.googleapis.com%2Fcss%3Ffamily%3DArchitects%2BDaughter;entryX=0.5;entryY=1;entryDx=0;entryDy=0;fontColor=#7EA6E0;strokeColor=#7EA6E0;" edge="1" parent="1" target="wKW3DbMZ_7wd4FMtNkPD-2">
          <mxGeometry width="50" height="50" relative="1" as="geometry">
            <mxPoint x="460" y="710" as="sourcePoint" />
            <mxPoint x="650" y="410" as="targetPoint" />
          </mxGeometry>
        </mxCell>
        <mxCell id="wKW3DbMZ_7wd4FMtNkPD-7" value="" style="endArrow=none;dashed=1;html=1;rounded=0;sketch=1;hachureGap=4;jiggle=2;curveFitting=1;fontFamily=Architects Daughter;fontSource=https%3A%2F%2Ffonts.googleapis.com%2Fcss%3Ffamily%3DArchitects%2BDaughter;entryX=0.5;entryY=1;entryDx=0;entryDy=0;fontColor=#7EA6E0;strokeColor=#7EA6E0;" edge="1" parent="1" target="wKW3DbMZ_7wd4FMtNkPD-3">
          <mxGeometry width="50" height="50" relative="1" as="geometry">
            <mxPoint x="760" y="710" as="sourcePoint" />
            <mxPoint x="750" y="410" as="targetPoint" />
          </mxGeometry>
        </mxCell>
        <mxCell id="wKW3DbMZ_7wd4FMtNkPD-8" value="" style="endArrow=none;dashed=1;html=1;dashPattern=1 3;strokeWidth=2;rounded=0;sketch=1;hachureGap=4;jiggle=2;curveFitting=1;fontFamily=Architects Daughter;fontSource=https%3A%2F%2Ffonts.googleapis.com%2Fcss%3Ffamily%3DArchitects%2BDaughter;entryX=0.5;entryY=1;entryDx=0;entryDy=0;fontColor=#7EA6E0;strokeColor=#7EA6E0;" edge="1" parent="1" target="wKW3DbMZ_7wd4FMtNkPD-4">
          <mxGeometry width="50" height="50" relative="1" as="geometry">
            <mxPoint x="1019" y="710" as="sourcePoint" />
            <mxPoint x="809" y="410" as="targetPoint" />
          </mxGeometry>
        </mxCell>
        <mxCell id="wKW3DbMZ_7wd4FMtNkPD-9" value="" style="endArrow=classic;html=1;rounded=0;sketch=1;hachureGap=4;jiggle=2;curveFitting=1;fontFamily=Architects Daughter;fontSource=https%3A%2F%2Ffonts.googleapis.com%2Fcss%3Ffamily%3DArchitects%2BDaughter;" edge="1" parent="1">
          <mxGeometry width="50" height="50" relative="1" as="geometry">
            <mxPoint x="220" y="310" as="sourcePoint" />
            <mxPoint x="760" y="310" as="targetPoint" />
          </mxGeometry>
        </mxCell>
        <mxCell id="wKW3DbMZ_7wd4FMtNkPD-10" value="1 -&amp;nbsp;&lt;div&gt;Kerberos SSO&lt;div&gt;service-ticket to web_api_1&lt;/div&gt;&lt;/div&gt;&lt;div&gt;/&lt;/div&gt;&lt;div&gt;opaque tokens or JWT&lt;/div&gt;&lt;div&gt;form OAuth2 Flows&lt;/div&gt;&lt;div&gt;(Authorization Code,&amp;nbsp;&lt;/div&gt;&lt;div&gt;Client Credentials)&lt;/div&gt;" style="text;html=1;align=center;verticalAlign=middle;resizable=0;points=[];autosize=1;strokeColor=none;fillColor=none;fontFamily=Architects Daughter;fontSource=https%3A%2F%2Ffonts.googleapis.com%2Fcss%3Ffamily%3DArchitects%2BDaughter;fontStyle=1;fontSize=15;" vertex="1" parent="1">
          <mxGeometry x="230" y="150" width="220" height="160" as="geometry" />
        </mxCell>
        <mxCell id="wKW3DbMZ_7wd4FMtNkPD-11" value="" style="endArrow=classic;html=1;rounded=0;sketch=1;hachureGap=4;jiggle=2;curveFitting=1;fontFamily=Architects Daughter;fontSource=https%3A%2F%2Ffonts.googleapis.com%2Fcss%3Ffamily%3DArchitects%2BDaughter;" edge="1" parent="1">
          <mxGeometry width="50" height="50" relative="1" as="geometry">
            <mxPoint x="760" y="350" as="sourcePoint" />
            <mxPoint x="460" y="350" as="targetPoint" />
          </mxGeometry>
        </mxCell>
        <mxCell id="wKW3DbMZ_7wd4FMtNkPD-12" value="2 - Request delegation HTTPS endpoint&lt;div&gt;(Kerberos SSO auth).&amp;nbsp;&lt;/div&gt;&lt;div&gt;API contract with&amp;nbsp;&lt;/div&gt;&lt;div&gt;delegations details&lt;/div&gt;" style="text;html=1;align=center;verticalAlign=middle;resizable=0;points=[];autosize=1;strokeColor=none;fillColor=none;fontFamily=Architects Daughter;fontSource=https%3A%2F%2Ffonts.googleapis.com%2Fcss%3Ffamily%3DArchitects%2BDaughter;fontSize=15;fontStyle=1" vertex="1" parent="1">
          <mxGeometry x="467" y="343" width="290" height="90" as="geometry" />
        </mxCell>
        <mxCell id="wKW3DbMZ_7wd4FMtNkPD-13" value="" style="endArrow=classic;html=1;rounded=0;sketch=1;hachureGap=4;jiggle=2;curveFitting=1;fontFamily=Architects Daughter;fontSource=https%3A%2F%2Ffonts.googleapis.com%2Fcss%3Ffamily%3DArchitects%2BDaughter;" edge="1" parent="1">
          <mxGeometry width="50" height="50" relative="1" as="geometry">
            <mxPoint x="470" y="460" as="sourcePoint" />
            <mxPoint x="760" y="460" as="targetPoint" />
          </mxGeometry>
        </mxCell>
        <mxCell id="wKW3DbMZ_7wd4FMtNkPD-14" value="3 - Return the User principal signed JWT" style="text;html=1;align=center;verticalAlign=middle;resizable=0;points=[];autosize=1;strokeColor=none;fillColor=none;fontFamily=Architects Daughter;fontSource=https%3A%2F%2Ffonts.googleapis.com%2Fcss%3Ffamily%3DArchitects%2BDaughter;fontSize=15;fontStyle=1" vertex="1" parent="1">
          <mxGeometry x="456" y="461" width="310" height="30" as="geometry" />
        </mxCell>
        <mxCell id="wKW3DbMZ_7wd4FMtNkPD-15" value="" style="endArrow=classic;html=1;rounded=0;sketch=1;hachureGap=4;jiggle=2;curveFitting=1;fontFamily=Architects Daughter;fontSource=https%3A%2F%2Ffonts.googleapis.com%2Fcss%3Ffamily%3DArchitects%2BDaughter;" edge="1" parent="1">
          <mxGeometry width="50" height="50" relative="1" as="geometry">
            <mxPoint x="760" y="560" as="sourcePoint" />
            <mxPoint x="460" y="560" as="targetPoint" />
          </mxGeometry>
        </mxCell>
        <mxCell id="wKW3DbMZ_7wd4FMtNkPD-16" value="4 - Request (on-behalf user) kerberos&amp;nbsp;&lt;div&gt;service ticket to web_api_2&lt;/div&gt;" style="text;html=1;align=center;verticalAlign=middle;resizable=0;points=[];autosize=1;strokeColor=none;fillColor=none;fontFamily=Architects Daughter;fontSource=https%3A%2F%2Ffonts.googleapis.com%2Fcss%3Ffamily%3DArchitects%2BDaughter;fontSize=15;fontStyle=1" vertex="1" parent="1">
          <mxGeometry x="462" y="560" width="300" height="50" as="geometry" />
        </mxCell>
        <mxCell id="wKW3DbMZ_7wd4FMtNkPD-17" value="" style="endArrow=classic;html=1;rounded=0;sketch=1;hachureGap=4;jiggle=2;curveFitting=1;fontFamily=Architects Daughter;fontSource=https%3A%2F%2Ffonts.googleapis.com%2Fcss%3Ffamily%3DArchitects%2BDaughter;" edge="1" parent="1">
          <mxGeometry width="50" height="50" relative="1" as="geometry">
            <mxPoint x="760" y="620" as="sourcePoint" />
            <mxPoint x="1020" y="620" as="targetPoint" />
          </mxGeometry>
        </mxCell>
        <mxCell id="wKW3DbMZ_7wd4FMtNkPD-18" value="5 - Authenticating on-behalf user&amp;nbsp;&lt;div&gt;with web_api_2 service-ticket&lt;/div&gt;" style="text;html=1;align=center;verticalAlign=middle;resizable=0;points=[];autosize=1;strokeColor=none;fillColor=none;fontFamily=Architects Daughter;fontSource=https%3A%2F%2Ffonts.googleapis.com%2Fcss%3Ffamily%3DArchitects%2BDaughter;fontSize=15;fontStyle=1" vertex="1" parent="1">
          <mxGeometry x="757" y="575" width="260" height="50" as="geometry" />
        </mxCell>
        <mxCell id="wKW3DbMZ_7wd4FMtNkPD-21" value="web-api_N" style="rounded=0;whiteSpace=wrap;html=1;sketch=1;hachureGap=4;jiggle=2;curveFitting=1;fontFamily=Architects Daughter;fontSource=https%3A%2F%2Ffonts.googleapis.com%2Fcss%3Ffamily%3DArchitects%2BDaughter;fillColor=#f8cecc;strokeColor=#b85450;fontSize=19;" vertex="1" parent="1">
          <mxGeometry x="1114" y="110" width="120" height="60" as="geometry" />
        </mxCell>
        <mxCell id="wKW3DbMZ_7wd4FMtNkPD-22" value="" style="endArrow=none;dashed=1;html=1;dashPattern=1 3;strokeWidth=2;rounded=0;sketch=1;hachureGap=4;jiggle=2;curveFitting=1;fontFamily=Architects Daughter;fontSource=https%3A%2F%2Ffonts.googleapis.com%2Fcss%3Ffamily%3DArchitects%2BDaughter;entryX=0.5;entryY=1;entryDx=0;entryDy=0;fontColor=#7EA6E0;strokeColor=#7EA6E0;" edge="1" target="wKW3DbMZ_7wd4FMtNkPD-21" parent="1">
          <mxGeometry width="50" height="50" relative="1" as="geometry">
            <mxPoint x="1173" y="710" as="sourcePoint" />
            <mxPoint x="963" y="410" as="targetPoint" />
          </mxGeometry>
        </mxCell>
        <mxCell id="wKW3DbMZ_7wd4FMtNkPD-23" value="" style="endArrow=classic;html=1;rounded=0;sketch=1;hachureGap=4;jiggle=2;curveFitting=1;fontFamily=Architects Daughter;fontSource=https%3A%2F%2Ffonts.googleapis.com%2Fcss%3Ffamily%3DArchitects%2BDaughter;" edge="1" parent="1">
          <mxGeometry width="50" height="50" relative="1" as="geometry">
            <mxPoint x="760" y="670" as="sourcePoint" />
            <mxPoint x="1170" y="670" as="targetPoint" />
          </mxGeometry>
        </mxCell>
        <mxCell id="wKW3DbMZ_7wd4FMtNkPD-24" value="&amp;nbsp;7 - Authenticating on-behalf user&amp;nbsp;&lt;div&gt;with web_api_N service-ticket&lt;/div&gt;" style="text;html=1;align=center;verticalAlign=middle;resizable=0;points=[];autosize=1;strokeColor=none;fillColor=none;fontFamily=Architects Daughter;fontSource=https%3A%2F%2Ffonts.googleapis.com%2Fcss%3Ffamily%3DArchitects%2BDaughter;fontSize=15;fontStyle=1" vertex="1" parent="1">
          <mxGeometry x="757" y="670" width="260" height="50" as="geometry" />
        </mxCell>
        <mxCell id="wKW3DbMZ_7wd4FMtNkPD-25" value="" style="endArrow=classic;html=1;rounded=0;sketch=1;hachureGap=4;jiggle=2;curveFitting=1;fontFamily=Architects Daughter;fontSource=https%3A%2F%2Ffonts.googleapis.com%2Fcss%3Ffamily%3DArchitects%2BDaughter;" edge="1" parent="1">
          <mxGeometry width="50" height="50" relative="1" as="geometry">
            <mxPoint x="760" y="640" as="sourcePoint" />
            <mxPoint x="460" y="640" as="targetPoint" />
          </mxGeometry>
        </mxCell>
        <mxCell id="wKW3DbMZ_7wd4FMtNkPD-26" value="6 - Request (on-behalf user) kerberos&amp;nbsp;&lt;div&gt;service ticket to web_api_N&lt;/div&gt;" style="text;html=1;align=center;verticalAlign=middle;resizable=0;points=[];autosize=1;strokeColor=none;fillColor=none;fontFamily=Architects Daughter;fontSource=https%3A%2F%2Ffonts.googleapis.com%2Fcss%3Ffamily%3DArchitects%2BDaughter;fontSize=15;fontStyle=1" vertex="1" parent="1">
          <mxGeometry x="457" y="640" width="300" height="50" as="geometry" />
        </mxCell>
      </root>
    </mxGraphModel>
  </diagram>
</mxfile>
